<svg width="603.9499999999999px" height="138.830029296875px" xmlns="http://www.w3.org/2000/svg" viewBox="-51.974999999999966 5.584985351562494 603.9499999999999 138.830029296875" style="background: none;" preserveAspectRatio="xMidYMid"><defs><filter id="editing-extrusion" x="-100%" y="-100%" width="300%" height="300%"><feFlood result="color1" flood-color="#dbdbdb"></feFlood><feConvolveMatrix order="8,8" divisor="1" kernelMatrix="1 0 0 0 0 0 0 0 0 1 0 0 0 0 0 0 0 0 1 0 0 0 0 0 0 0 0 1 0 0 0 0 0 0 0 0 1 0 0 0 0 0 0 0 0 1 0 0 0 0 0 0 0 0 1 0 0 0 0 0 0 0 0 1" in="SourceAlpha" result="extrude"></feConvolveMatrix><feComposite in="color1" in2="extrude" result="comp-extrude" operator="in"></feComposite><feOffset dx="4" dy="4" in="comp-extrude" result="offset-extrude"></feOffset><feMerge><feMergeNode in="offset-extrude"></feMergeNode><feMergeNode in="SourceGraphic"></feMergeNode></feMerge></filter></defs><g filter="url(#editing-extrusion)"><g transform="translate(34.38500356674194, 99.13000106811523)"><path d="M14.02 0.77L14.02 0.77Q11.33 0.77 9.09 0.29L9.09 0.29L9.09 0.29Q6.85-0.19 5.41-0.77L5.41-0.77L5.41-0.77Q3.97-1.34 3.97-1.41L3.97-1.41L3.65-2.05L3.65-2.05Q3.71-2.43 3.90-3.97L3.90-3.97L3.90-3.97Q4.10-5.50 4.26-7.97L4.26-7.97L4.26-7.97Q4.42-10.43 4.42-13.18L4.42-13.18L7.30-13.50L7.30-13.50Q7.30-8.70 7.94-6.40L7.94-6.40L7.94-6.40Q8.58-4.10 10.30-3.23L10.30-3.23L10.30-3.23Q12.03-2.37 15.62-2.37L15.62-2.37L15.62-2.37Q19.65-2.37 22.08-4.26L22.08-4.26L22.08-4.26Q24.51-6.14 24.51-9.41L24.51-9.41L24.51-9.41Q24.51-11.33 23.20-12.86L23.20-12.86L23.20-12.86Q21.89-14.40 20.10-15.49L20.10-15.49L20.10-15.49Q18.30-16.58 14.78-18.43L14.78-18.43L14.78-18.43Q11.46-20.16 9.34-21.60L9.34-21.60L9.34-21.60Q7.23-23.04 5.79-25.02L5.79-25.02L5.79-25.02Q4.35-27.01 4.35-29.63L4.35-29.63L4.35-29.63Q4.35-32.96 6.30-35.68L6.30-35.68L6.30-35.68Q8.26-38.40 11.62-39.97L11.62-39.97L11.62-39.97Q14.98-41.54 19.07-41.54L19.07-41.54L19.07-41.54Q21.63-41.54 23.81-41.18L23.81-41.18L23.81-41.18Q25.98-40.83 27.26-40.45L27.26-40.45L27.26-40.45Q28.54-40.06 28.86-39.94L28.86-39.94L29.06-39.55L29.06-39.55Q28.99-39.17 28.74-37.76L28.74-37.76L28.74-37.76Q28.48-36.35 28.16-33.86L28.16-33.86L28.16-33.86Q27.84-31.36 27.65-28.74L27.65-28.74L25.15-28.48L24.77-28.80L24.77-28.80Q24.83-29.06 24.90-29.98L24.90-29.98L24.90-29.98Q24.96-30.91 24.96-32.13L24.96-32.13L24.96-32.13Q24.96-35.52 23.30-36.80L23.30-36.80L23.30-36.80Q21.63-38.08 17.34-38.08L17.34-38.08L17.34-38.08Q13.82-38.08 11.55-36.32L11.55-36.32L11.55-36.32Q9.28-34.56 9.28-31.94L9.28-31.94L9.28-31.94Q9.28-29.38 11.49-27.49L11.49-27.49L11.49-27.49Q13.70-25.60 17.98-23.36L17.98-23.36L17.98-23.36Q22.14-21.25 24.32-19.87L24.32-19.87L24.32-19.87Q26.50-18.50 28.16-16.45L28.16-16.45L28.16-16.45Q29.82-14.40 29.82-11.71L29.82-11.71L29.82-11.71Q29.82-8.13 27.81-5.28L27.81-5.28L27.81-5.28Q25.79-2.43 22.21-0.83L22.21-0.83L22.21-0.83Q18.62 0.77 14.02 0.77L14.02 0.77ZM47.10 0.77L47.10 0.77Q42.75 0.77 40.96-0.99L40.96-0.99L40.96-0.99Q39.17-2.75 39.17-6.98L39.17-6.98L39.17-22.72L39.17-22.72Q39.17-24.45 38.40-25.15L38.40-25.15L38.40-25.15Q37.63-25.86 35.52-25.92L35.52-25.92L35.26-26.30L35.58-28.22L35.58-28.22Q37.44-29.12 39.20-30.43L39.20-30.43L39.20-30.43Q40.96-31.74 42.08-32.74L42.08-32.74L42.08-32.74Q43.20-33.73 43.52-34.05L43.52-34.05L44.80-33.54L44.80-33.54Q44.74-33.22 44.61-32L44.61-32L44.61-32Q44.48-30.78 44.29-28.74L44.29-28.74L53.70-28.93L53.89-28.74L53.31-25.34L44.03-25.54L44.03-25.54Q43.58-18.50 43.58-9.54L43.58-9.54L43.58-9.54Q43.58-6.27 44.70-4.93L44.70-4.93L44.70-4.93Q45.82-3.58 48.58-3.58L48.58-3.58L48.58-3.58Q49.54-3.58 50.50-3.84L50.50-3.84L50.50-3.84Q51.46-4.10 52.10-4.38L52.10-4.38L52.10-4.38Q52.74-4.67 52.93-4.74L52.93-4.74L53.57-3.07L53.57-3.07Q53.18-2.75 51.94-1.86L51.94-1.86L51.94-1.86Q50.69-0.96 49.25-0.10L49.25-0.10L49.25-0.10Q47.81 0.77 47.10 0.77L47.10 0.77ZM70.78 0.77L70.78 0.77Q66.82 0.77 63.74-0.99L63.74-0.99L63.74-0.99Q60.67-2.75 59.01-5.98L59.01-5.98L59.01-5.98Q57.34-9.22 57.34-13.38L57.34-13.38L57.34-13.38Q57.34-17.66 59.30-21.44L59.30-21.44L59.30-21.44Q61.25-25.22 64.51-27.46L64.51-27.46L64.51-27.46Q67.78-29.70 71.49-29.70L71.49-29.70L71.49-29.70Q76.16-29.70 78.59-27.33L78.59-27.33L78.59-27.33Q81.02-24.96 81.02-20.42L81.02-20.42L81.02-20.42Q81.02-18.56 80.64-17.28L80.64-17.28L79.81-16.51L62.14-16.51L62.14-16.51Q62.08-10.30 64.61-6.94L64.61-6.94L64.61-6.94Q67.14-3.58 71.68-3.58L71.68-3.58L71.68-3.58Q75.26-3.58 79.49-5.57L79.49-5.57L79.87-5.44L80.58-3.58L80.58-3.58Q78.27-1.92 75.49-0.58L75.49-0.58L75.49-0.58Q72.70 0.77 70.78 0.77L70.78 0.77ZM62.40-18.88L73.98-19.46L73.98-19.46Q74.94-19.58 75.26-19.90L75.26-19.90L75.26-19.90Q75.58-20.22 75.58-21.18L75.58-21.18L75.58-21.18Q75.58-23.74 74.21-25.09L74.21-25.09L74.21-25.09Q72.83-26.43 70.27-26.43L70.27-26.43L70.27-26.43Q67.26-26.43 65.12-24.38L65.12-24.38L65.12-24.38Q62.98-22.34 62.40-18.88L62.40-18.88ZM99.46 0.77L99.46 0.77Q95.49 0.77 92.42-0.99L92.42-0.99L92.42-0.99Q89.34-2.75 87.68-5.98L87.68-5.98L87.68-5.98Q86.02-9.22 86.02-13.38L86.02-13.38L86.02-13.38Q86.02-17.66 87.97-21.44L87.97-21.44L87.97-21.44Q89.92-25.22 93.18-27.46L93.18-27.46L93.18-27.46Q96.45-29.70 100.16-29.70L100.16-29.70L100.16-29.70Q104.83-29.70 107.26-27.33L107.26-27.33L107.26-27.33Q109.70-24.96 109.70-20.42L109.70-20.42L109.70-20.42Q109.70-18.56 109.31-17.28L109.31-17.28L108.48-16.51L90.82-16.51L90.82-16.51Q90.75-10.30 93.28-6.94L93.28-6.94L93.28-6.94Q95.81-3.58 100.35-3.58L100.35-3.58L100.35-3.58Q103.94-3.58 108.16-5.57L108.16-5.57L108.54-5.44L109.25-3.58L109.25-3.58Q106.94-1.92 104.16-0.58L104.16-0.58L104.16-0.58Q101.38 0.77 99.46 0.77L99.46 0.77ZM91.07-18.88L102.66-19.46L102.66-19.46Q103.62-19.58 103.94-19.90L103.94-19.90L103.94-19.90Q104.26-20.22 104.26-21.18L104.26-21.18L104.26-21.18Q104.26-23.74 102.88-25.09L102.88-25.09L102.88-25.09Q101.50-26.43 98.94-26.43L98.94-26.43L98.94-26.43Q95.94-26.43 93.79-24.38L93.79-24.38L93.79-24.38Q91.65-22.34 91.07-18.88L91.07-18.88ZM114.11 0.77L114.37-1.86L114.37-1.86Q116.16-2.37 116.90-3.14L116.90-3.14L116.90-3.14Q117.63-3.90 117.79-4.99L117.79-4.99L117.79-4.99Q117.95-6.08 117.95-8.64L117.95-8.64L117.95-40.06L117.95-40.06Q117.95-42.05 117.50-42.75L117.50-42.75L117.50-42.75Q117.06-43.46 115.65-43.46L115.65-43.46L115.65-43.46Q115.33-43.46 114.18-43.33L114.18-43.33L113.98-43.46L114.24-45.63L114.24-45.63Q119.62-46.40 123.71-47.49L123.71-47.49L124.10-46.66L124.10-46.66Q123.39-45.57 122.85-32.96L122.85-32.96L122.85-32.96Q122.30-20.35 122.30-6.27L122.30-6.27L122.30-6.27Q122.30-4.35 122.82-3.52L122.82-3.52L122.82-3.52Q123.33-2.69 124.54-2.69L124.54-2.69L126.78-2.82L126.91-2.56L126.40 0.19L126.40 0.19Q122.18 0 120.70 0L120.70 0L120.70 0Q118.53 0 114.11 0.77L114.11 0.77ZM162.37 0.77L162.37 0.77Q156.61 0.77 152.26-1.66L152.26-1.66L152.26-1.66Q147.90-4.10 145.57-8.54L145.57-8.54L145.57-8.54Q143.23-12.99 143.23-19.01L143.23-19.01L143.23-19.01Q143.23-25.41 146.11-30.56L146.11-30.56L146.11-30.56Q148.99-35.71 154.08-38.62L154.08-38.62L154.08-38.62Q159.17-41.54 165.57-41.54L165.57-41.54L165.57-41.54Q167.94-41.54 170.40-41.18L170.40-41.18L170.40-41.18Q172.86-40.83 174.56-40.48L174.56-40.48L174.56-40.48Q176.26-40.13 176.70-40L176.70-40L176.96-39.62L176.96-39.62Q176.83-39.23 176.54-37.76L176.54-37.76L176.54-37.76Q176.26-36.29 175.90-33.92L175.90-33.92L175.90-33.92Q175.55-31.55 175.36-28.93L175.36-28.93L172.29-28.67L172.29-28.67Q172.35-28.99 172.42-29.86L172.42-29.86L172.42-29.86Q172.48-30.72 172.48-31.81L172.48-31.81L172.48-31.81Q172.48-37.76 163.07-37.76L163.07-37.76L163.07-37.76Q158.85-37.76 155.65-35.71L155.65-35.71L155.65-35.71Q152.45-33.66 150.72-29.92L150.72-29.92L150.72-29.92Q148.99-26.18 148.99-21.12L148.99-21.12L148.99-21.12Q148.99-15.55 150.82-11.33L150.82-11.33L150.82-11.33Q152.64-7.10 155.97-4.77L155.97-4.77L155.97-4.77Q159.30-2.43 163.65-2.43L163.65-2.43L163.65-2.43Q168-2.43 170.66-4.90L170.66-4.90L170.66-4.90Q173.31-7.36 174.53-12.54L174.53-12.54L177.60-12.80L177.60-12.80Q177.41-11.84 176.77-8.54L176.77-8.54L176.77-8.54Q176.13-5.25 175.87-2.37L175.87-2.37L175.49-1.79L175.49-1.79Q175.49-1.73 173.54-1.06L173.54-1.06L173.54-1.06Q171.58-0.38 168.67 0.19L168.67 0.19L168.67 0.19Q165.76 0.77 162.37 0.77L162.37 0.77ZM195.46 0.77L195.46 0.77Q191.81 0.77 188.99-1.02L188.99-1.02L188.99-1.02Q186.18-2.82 184.61-6.05L184.61-6.05L184.61-6.05Q183.04-9.28 183.04-13.44L183.04-13.44L183.04-13.44Q183.04-17.92 184.99-21.66L184.99-21.66L184.99-21.66Q186.94-25.41 190.34-27.55L190.34-27.55L190.34-27.55Q193.73-29.70 197.89-29.70L197.89-29.70L197.89-29.70Q201.47-29.70 204.32-27.90L204.32-27.90L204.32-27.90Q207.17-26.11 208.74-22.88L208.74-22.88L208.74-22.88Q210.30-19.65 210.30-15.49L210.30-15.49L210.30-15.49Q210.30-11.01 208.35-7.26L208.35-7.26L208.35-7.26Q206.40-3.52 203.01-1.38L203.01-1.38L203.01-1.38Q199.62 0.77 195.46 0.77L195.46 0.77ZM197.25-2.37L197.25-2.37Q200.83-2.37 202.94-5.28L202.94-5.28L202.94-5.28Q205.06-8.19 205.06-13.18L205.06-13.18L205.06-13.18Q205.06-16.96 203.90-19.94L203.90-19.94L203.90-19.94Q202.75-22.91 200.67-24.58L200.67-24.58L200.67-24.58Q198.59-26.24 195.97-26.24L195.97-26.24L195.97-26.24Q192.38-26.24 190.27-23.30L190.27-23.30L190.27-23.30Q188.16-20.35 188.16-15.30L188.16-15.30L188.16-15.30Q188.16-11.52 189.31-8.58L189.31-8.58L189.31-8.58Q190.46-5.63 192.51-4L192.51-4L192.51-4Q194.56-2.37 197.25-2.37L197.25-2.37ZM233.54-1.86L233.54-1.86Q235.46-2.37 236.29-3.36L236.29-3.36L236.29-3.36Q237.12-4.35 237.12-6.02L237.12-6.02L237.38-18.69L237.38-18.69Q237.38-21.89 236-23.62L236-23.62L236-23.62Q234.62-25.34 232.06-25.34L232.06-25.34L232.06-25.34Q230.02-25.34 227.90-24.29L227.90-24.29L227.90-24.29Q225.79-23.23 224.19-22.02L224.19-22.02L224.19-22.02Q223.62-8.77 223.62-6.27L223.62-6.27L223.62-6.27Q223.62-4.29 224.13-3.49L224.13-3.49L224.13-3.49Q224.64-2.69 225.92-2.69L225.92-2.69L225.92-2.69Q226.62-2.69 227.26-2.75L227.26-2.75L227.26-2.75Q227.90-2.82 228.16-2.82L228.16-2.82L228.29-2.56L227.71 0.19L227.71 0.19Q227.14 0.13 225.47 0.06L225.47 0.06L225.47 0.06Q223.81 0 221.89 0L221.89 0L221.89 0Q220.22 0 218.21 0.16L218.21 0.16L218.21 0.16Q216.19 0.32 215.55 0.38L215.55 0.38L215.87-2.24L215.87-2.24Q217.73-2.56 218.50-3.39L218.50-3.39L218.50-3.39Q219.26-4.22 219.26-6.02L219.26-6.02L219.26-21.63L219.26-21.63Q219.26-23.81 218.56-24.67L218.56-24.67L218.56-24.67Q217.86-25.54 216.13-25.54L216.13-25.54L215.42-25.54L215.23-25.79L215.42-27.90L215.42-27.90Q218.18-28.35 220.90-28.96L220.90-28.96L220.90-28.96Q223.62-29.57 224.38-29.76L224.38-29.76L224.77-29.25L224.77-29.25Q224.64-28.86 224.38-27.62L224.38-27.62L224.38-27.62Q224.13-26.37 224.06-25.02L224.06-25.02L224.19-24.83L224.19-24.83Q231.49-29.70 233.60-29.70L233.60-29.70L233.60-29.70Q237.63-29.70 240-27.46L240-27.46L240-27.46Q242.37-25.22 242.37-21.44L242.37-21.44L242.37-21.44Q242.37-20.80 241.98-15.55L241.98-15.55L241.98-15.55Q241.47-8.90 241.47-6.27L241.47-6.27L241.47-6.27Q241.47-4.42 241.98-3.55L241.98-3.55L241.98-3.55Q242.50-2.69 243.71-2.69L243.71-2.69L243.71-2.69Q244.42-2.69 245.06-2.75L245.06-2.75L245.06-2.75Q245.70-2.82 245.95-2.82L245.95-2.82L246.08-2.56L245.57 0.19L245.57 0.19Q244.99 0.13 243.39 0.06L243.39 0.06L243.39 0.06Q241.79 0 239.87 0L239.87 0L239.87 0Q238.21 0 236.06 0.32L236.06 0.32L236.06 0.32Q233.92 0.64 233.28 0.77L233.28 0.77L233.54-1.86ZM260.86 0.77L260.86 0.77Q256.51 0.77 254.72-0.99L254.72-0.99L254.72-0.99Q252.93-2.75 252.93-6.98L252.93-6.98L252.93-22.72L252.93-22.72Q252.93-24.45 252.16-25.15L252.16-25.15L252.16-25.15Q251.39-25.86 249.28-25.92L249.28-25.92L249.02-26.30L249.34-28.22L249.34-28.22Q251.20-29.12 252.96-30.43L252.96-30.43L252.96-30.43Q254.72-31.74 255.84-32.74L255.84-32.74L255.84-32.74Q256.96-33.73 257.28-34.05L257.28-34.05L258.56-33.54L258.56-33.54Q258.50-33.22 258.37-32L258.37-32L258.37-32Q258.24-30.78 258.05-28.74L258.05-28.74L267.46-28.93L267.65-28.74L267.07-25.34L257.79-25.54L257.79-25.54Q257.34-18.50 257.34-9.54L257.34-9.54L257.34-9.54Q257.34-6.27 258.46-4.93L258.46-4.93L258.46-4.93Q259.58-3.58 262.34-3.58L262.34-3.58L262.34-3.58Q263.30-3.58 264.26-3.84L264.26-3.84L264.26-3.84Q265.22-4.10 265.86-4.38L265.86-4.38L265.86-4.38Q266.50-4.67 266.69-4.74L266.69-4.74L267.33-3.07L267.33-3.07Q266.94-2.75 265.70-1.86L265.70-1.86L265.70-1.86Q264.45-0.96 263.01-0.10L263.01-0.10L263.01-0.10Q261.57 0.77 260.86 0.77L260.86 0.77ZM292.61 0.77L292.61 0.77Q287.42 0.77 286.91-4.42L286.91-4.42L286.66-4.48L286.66-4.48Q284.35-2.18 282.46-0.83L282.46-0.83L282.46-0.83Q280.58 0.51 279.62 0.51L279.62 0.51L279.62 0.51Q276.03 0.51 273.73-1.73L273.73-1.73L273.73-1.73Q271.42-3.97 271.42-7.42L271.42-7.42L271.42-7.42Q271.42-9.28 272.35-10.69L272.35-10.69L272.35-10.69Q273.28-12.10 274.82-12.54L274.82-12.54L286.98-15.87L287.04-18.69L287.04-18.69Q287.04-21.89 285.57-23.68L285.57-23.68L285.57-23.68Q284.10-25.47 281.41-25.47L281.41-25.47L281.41-25.47Q279.62-25.47 277.63-24.64L277.63-24.64L277.63-24.64Q275.65-23.81 273.73-22.27L273.73-22.27L273.41-22.46L272.64-25.22L272.64-25.22Q275.65-26.94 278.69-28.32L278.69-28.32L278.69-28.32Q281.73-29.70 283.07-29.70L283.07-29.70L283.07-29.70Q287.23-29.70 289.60-27.52L289.60-27.52L289.60-27.52Q291.97-25.34 291.97-21.44L291.97-21.44L291.97-21.44Q291.97-20.03 291.52-15.68L291.52-15.68L291.52-15.68Q290.82-8.64 290.82-6.72L290.82-6.72L290.82-6.72Q290.82-5.31 291.52-4.54L291.52-4.54L291.52-4.54Q292.22-3.78 293.44-3.78L293.44-3.78L293.44-3.78Q294.46-3.78 295.55-4.26L295.55-4.26L295.55-4.26Q296.64-4.74 297.28-5.38L297.28-5.38L298.18-4.35L298.18-4.35Q297.22-2.75 295.71-1.25L295.71-1.25L295.71-1.25Q294.21 0.26 292.61 0.77L292.61 0.77ZM280.70-3.84L280.70-3.84Q281.92-3.84 283.55-4.70L283.55-4.70L283.55-4.70Q285.18-5.57 286.53-6.91L286.53-6.91L286.85-13.44L278.14-10.82L278.14-10.82Q276.29-10.24 276.29-8.13L276.29-8.13L276.29-8.13Q276.29-6.27 277.54-5.06L277.54-5.06L277.54-5.06Q278.78-3.84 280.70-3.84L280.70-3.84ZM301.44 0.77L301.70-1.86L301.70-1.86Q303.62-2.37 304.45-3.36L304.45-3.36L304.45-3.36Q305.28-4.35 305.28-6.02L305.28-6.02L305.28-22.27L305.28-22.27Q305.28-25.73 302.91-25.73L302.91-25.73L302.91-25.73Q302.46-25.73 301.95-25.63L301.95-25.63L301.95-25.63Q301.44-25.54 301.31-25.47L301.31-25.47L301.57-27.84L301.57-27.84Q304.26-28.22 307.10-28.86L307.10-28.86L307.10-28.86Q309.95-29.50 310.78-29.70L310.78-29.70L311.10-28.93L311.10-28.93Q310.53-27.58 310.08-20.70L310.08-20.70L310.08-20.70Q309.63-13.82 309.63-6.27L309.63-6.27L309.63-6.27Q309.63-4.42 310.14-3.55L310.14-3.55L310.14-3.55Q310.66-2.69 311.87-2.69L311.87-2.69L311.87-2.69Q312.58-2.69 313.22-2.75L313.22-2.75L313.22-2.75Q313.86-2.82 314.11-2.82L314.11-2.82L314.24-2.56L313.73 0.19L313.73 0.19Q313.15 0.13 311.55 0.06L311.55 0.06L311.55 0.06Q309.95 0 308.03 0L308.03 0L308.03 0Q306.37 0 304.22 0.32L304.22 0.32L304.22 0.32Q302.08 0.64 301.44 0.77L301.44 0.77ZM307.07-37.25L307.07-37.25Q305.60-37.25 304.77-38.21L304.77-38.21L304.77-38.21Q303.94-39.17 303.94-40.51L303.94-40.51L303.94-40.51Q303.94-42.05 305.02-43.17L305.02-43.17L305.02-43.17Q306.11-44.29 307.71-44.29L307.71-44.29L307.71-44.29Q309.18-44.29 310.02-43.33L310.02-43.33L310.02-43.33Q310.85-42.37 310.85-41.02L310.85-41.02L310.85-41.02Q310.85-39.49 309.76-38.37L309.76-38.37L309.76-38.37Q308.67-37.25 307.07-37.25L307.07-37.25ZM337.60-1.86L337.60-1.86Q339.52-2.37 340.35-3.36L340.35-3.36L340.35-3.36Q341.18-4.35 341.18-6.02L341.18-6.02L341.44-18.69L341.44-18.69Q341.44-21.89 340.06-23.62L340.06-23.62L340.06-23.62Q338.69-25.34 336.13-25.34L336.13-25.34L336.13-25.34Q334.08-25.34 331.97-24.29L331.97-24.29L331.97-24.29Q329.86-23.23 328.26-22.02L328.26-22.02L328.26-22.02Q327.68-8.77 327.68-6.27L327.68-6.27L327.68-6.27Q327.68-4.29 328.19-3.49L328.19-3.49L328.19-3.49Q328.70-2.69 329.98-2.69L329.98-2.69L329.98-2.69Q330.69-2.69 331.33-2.75L331.33-2.75L331.33-2.75Q331.97-2.82 332.22-2.82L332.22-2.82L332.35-2.56L331.78 0.19L331.78 0.19Q331.20 0.13 329.54 0.06L329.54 0.06L329.54 0.06Q327.87 0 325.95 0L325.95 0L325.95 0Q324.29 0 322.27 0.16L322.27 0.16L322.27 0.16Q320.26 0.32 319.62 0.38L319.62 0.38L319.94-2.24L319.94-2.24Q321.79-2.56 322.56-3.39L322.56-3.39L322.56-3.39Q323.33-4.22 323.33-6.02L323.33-6.02L323.33-21.63L323.33-21.63Q323.33-23.81 322.62-24.67L322.62-24.67L322.62-24.67Q321.92-25.54 320.19-25.54L320.19-25.54L319.49-25.54L319.30-25.79L319.49-27.90L319.49-27.90Q322.24-28.35 324.96-28.96L324.96-28.96L324.96-28.96Q327.68-29.57 328.45-29.76L328.45-29.76L328.83-29.25L328.83-29.25Q328.70-28.86 328.45-27.62L328.45-27.62L328.45-27.62Q328.19-26.37 328.13-25.02L328.13-25.02L328.26-24.83L328.26-24.83Q335.55-29.70 337.66-29.70L337.66-29.70L337.66-29.70Q341.70-29.70 344.06-27.46L344.06-27.46L344.06-27.46Q346.43-25.22 346.43-21.44L346.43-21.44L346.43-21.44Q346.43-20.80 346.05-15.55L346.05-15.55L346.05-15.55Q345.54-8.90 345.54-6.27L345.54-6.27L345.54-6.27Q345.54-4.42 346.05-3.55L346.05-3.55L346.05-3.55Q346.56-2.69 347.78-2.69L347.78-2.69L347.78-2.69Q348.48-2.69 349.12-2.75L349.12-2.75L349.12-2.75Q349.76-2.82 350.02-2.82L350.02-2.82L350.14-2.56L349.63 0.19L349.63 0.19Q349.06 0.13 347.46 0.06L347.46 0.06L347.46 0.06Q345.86 0 343.94 0L343.94 0L343.94 0Q342.27 0 340.13 0.32L340.13 0.32L340.13 0.32Q337.98 0.64 337.34 0.77L337.34 0.77L337.60-1.86ZM367.49 0.77L367.49 0.77Q363.52 0.77 360.45-0.99L360.45-0.99L360.45-0.99Q357.38-2.75 355.71-5.98L355.71-5.98L355.71-5.98Q354.05-9.22 354.05-13.38L354.05-13.38L354.05-13.38Q354.05-17.66 356-21.44L356-21.44L356-21.44Q357.95-25.22 361.22-27.46L361.22-27.46L361.22-27.46Q364.48-29.70 368.19-29.70L368.19-29.70L368.19-29.70Q372.86-29.70 375.30-27.33L375.30-27.33L375.30-27.33Q377.73-24.96 377.73-20.42L377.73-20.42L377.73-20.42Q377.73-18.56 377.34-17.28L377.34-17.28L376.51-16.51L358.85-16.51L358.85-16.51Q358.78-10.30 361.31-6.94L361.31-6.94L361.31-6.94Q363.84-3.58 368.38-3.58L368.38-3.58L368.38-3.58Q371.97-3.58 376.19-5.57L376.19-5.57L376.58-5.44L377.28-3.58L377.28-3.58Q374.98-1.92 372.19-0.58L372.19-0.58L372.19-0.58Q369.41 0.77 367.49 0.77L367.49 0.77ZM359.10-18.88L370.69-19.46L370.69-19.46Q371.65-19.58 371.97-19.90L371.97-19.90L371.97-19.90Q372.29-20.22 372.29-21.18L372.29-21.18L372.29-21.18Q372.29-23.74 370.91-25.09L370.91-25.09L370.91-25.09Q369.54-26.43 366.98-26.43L366.98-26.43L366.98-26.43Q363.97-26.43 361.82-24.38L361.82-24.38L361.82-24.38Q359.68-22.34 359.10-18.88L359.10-18.88ZM384.19-2.30L384.19-2.30Q386.11-2.50 386.75-3.55L386.75-3.55L386.75-3.55Q387.39-4.61 387.39-7.62L387.39-7.62L387.39-21.70L387.39-21.70Q387.39-23.81 386.82-24.70L386.82-24.70L386.82-24.70Q386.24-25.60 384.96-25.60L384.96-25.60L384.96-25.60Q384.45-25.60 384.10-25.54L384.10-25.54L384.10-25.54Q383.74-25.47 383.62-25.41L383.62-25.41L383.30-25.86L383.49-27.84L383.49-27.84Q385.92-28.29 388.64-28.93L388.64-28.93L388.64-28.93Q391.36-29.57 392.13-29.76L392.13-29.76L392.58-29.38L392.58-29.38Q392.45-28.80 392.19-26.72L392.19-26.72L392.19-26.72Q391.94-24.64 392.00-22.78L392.00-22.78L392.26-22.59L392.26-22.59Q394.18-25.60 396.77-27.52L396.77-27.52L396.77-27.52Q399.36-29.44 401.28-29.44L401.28-29.44L401.28-29.44Q402.18-29.44 402.66-29.34L402.66-29.34L402.66-29.34Q403.14-29.25 403.26-29.18L403.26-29.18L403.46-28.93L403.46-28.93Q403.33-28.03 402.91-25.12L402.91-25.12L402.91-25.12Q402.50-22.21 402.43-19.78L402.43-19.78L399.94-19.58L399.94-19.58Q399.94-22.21 399.58-23.07L399.58-23.07L399.58-23.07Q399.23-23.94 398.21-23.94L398.21-23.94L398.21-23.94Q396.80-23.94 395.20-22.75L395.20-22.75L395.20-22.75Q393.60-21.57 392.26-19.58L392.26-19.58L392.26-19.58Q392.19-17.73 392.00-13.44L392.00-13.44L392.00-13.44Q391.81-9.15 391.74-6.53L391.74-6.53L391.74-6.53Q391.74-4.35 392.38-3.58L392.38-3.58L392.38-3.58Q393.02-2.82 394.82-2.82L394.82-2.82L394.82-2.82Q395.65-2.82 396.48-2.88L396.48-2.88L396.48-2.88Q397.31-2.94 397.63-2.94L397.63-2.94L397.70-2.69L397.12 0.13L397.12 0.13Q396.48 0.13 394.56 0.06L394.56 0.06L394.56 0.06Q392.64 0 390.59 0L390.59 0L390.59 0Q388.22 0 386.30 0.10L386.30 0.10L386.30 0.10Q384.38 0.19 383.87 0.26L383.87 0.26L384.19-2.30ZM415.87 0.77L415.87 0.77Q413.82 0.77 412.13 0.48L412.13 0.48L412.13 0.48Q410.43 0.19 409.47-0.13L409.47-0.13L409.47-0.13Q408.51-0.45 408.26-0.58L408.26-0.58L408.06-1.02L408.06-1.02Q408.26-1.98 408.51-4.99L408.51-4.99L408.51-4.99Q408.77-8 408.83-9.60L408.83-9.60L411.07-9.92L411.07-9.92Q411.07-5.70 412.48-3.97L412.48-3.97L412.48-3.97Q413.89-2.24 417.28-2.24L417.28-2.24L417.28-2.24Q419.71-2.24 421.38-3.33L421.38-3.33L421.38-3.33Q423.04-4.42 423.04-6.02L423.04-6.02L423.04-6.02Q423.04-7.62 421.54-8.93L421.54-8.93L421.54-8.93Q420.03-10.24 415.62-12.61L415.62-12.61L415.62-12.61Q411.97-14.46 410.30-16.38L410.30-16.38L410.30-16.38Q408.64-18.30 408.64-20.61L408.64-20.61L408.64-20.61Q408.64-23.17 410.18-25.25L410.18-25.25L410.18-25.25Q411.71-27.33 414.40-28.51L414.40-28.51L414.40-28.51Q417.09-29.70 420.42-29.70L420.42-29.70L420.42-29.70Q421.95-29.70 423.36-29.47L423.36-29.47L423.36-29.47Q424.77-29.25 425.66-28.99L425.66-28.99L425.66-28.99Q426.56-28.74 426.82-28.67L426.82-28.67L426.94-28.35L426.94-28.35Q426.82-27.71 426.37-25.44L426.37-25.44L426.37-25.44Q425.92-23.17 425.73-20.54L425.73-20.54L423.36-20.35L423.36-20.35Q423.36-20.54 423.42-21.12L423.42-21.12L423.42-21.12Q423.49-21.70 423.49-22.21L423.49-22.21L423.49-22.21Q423.49-24.51 422.24-25.57L422.24-25.57L422.24-25.57Q420.99-26.62 418.24-26.62L418.24-26.62L418.24-26.62Q416.06-26.62 414.56-25.60L414.56-25.60L414.56-25.60Q413.06-24.58 413.06-23.10L413.06-23.10L413.06-23.10Q413.06-21.57 414.37-20.22L414.37-20.22L414.37-20.22Q415.68-18.88 418.62-17.34L418.62-17.34L418.62-17.34Q423.81-14.59 425.70-12.70L425.70-12.70L425.70-12.70Q427.58-10.82 427.58-8.38L427.58-8.38L427.58-8.38Q427.58-5.95 425.98-3.84L425.98-3.84L425.98-3.84Q424.38-1.73 421.66-0.48L421.66-0.48L421.66-0.48Q418.94 0.77 415.87 0.77L415.87 0.77Z" fill="#2d4eac"></path></g></g><style>text {
  font-size: 64px;
  font-family: Arial Black;
  dominant-baseline: central;
  text-anchor: middle;
}</style></svg>